<svg xmlns="http://www.w3.org/2000/svg" width="1200" height="520" viewBox="0 0 1200 520">
  <defs>
    <linearGradient id="bgA" x1="0" y1="0" x2="1" y2="1">
      <stop offset="0%" stop-color="#0E2A47"/>
      <stop offset="100%" stop-color="#1D5C9B"/>
    </linearGradient>
    <linearGradient id="glassA" x1="0" y1="0" x2="0" y2="1">
      <stop offset="0%" stop-color="#ffffff" stop-opacity="0.9"/>
      <stop offset="100%" stop-color="#dbe9ff" stop-opacity="0.6"/>
    </linearGradient>
  </defs>

  <rect width="1200" height="520" fill="#f7f9fc"/>
  <text x="40" y="52" font-family="Helvetica, Arial, sans-serif" font-size="28" fill="#0f172a">Option A - Sharp / Reliable</text>

  <rect x="40" y="90" rx="88" ry="88" width="340" height="340" fill="url(#bgA)"/>
  <path d="M120 185 C160 128, 260 128, 300 185 C260 242, 160 242, 120 300 C160 358, 260 358, 300 300" fill="none" stroke="#ffffff" stroke-width="26" stroke-linecap="round"/>
  <path d="M285 145 l16 26 30 6 -22 20 5 30 -29 -15 -28 15 5 -30 -23 -20 31 -6z" fill="#BFE2FF"/>

  <rect x="480" y="120" rx="18" ry="18" width="300" height="110" fill="#ffffff" stroke="#d0d8e4"/>
  <text x="508" y="160" font-family="Helvetica, Arial, sans-serif" font-size="20" fill="#334155">Menu bar: Idle</text>
  <g transform="translate(640,183)">
    <path d="M-52 -16 C-38 -34, -4 -34, 12 -16 C-4 2, -38 2, -52 20 C-38 38, -4 38, 12 20" fill="none" stroke="#111827" stroke-width="6" stroke-linecap="round"/>
  </g>

  <rect x="820" y="120" rx="18" ry="18" width="320" height="110" fill="#ffffff" stroke="#d0d8e4"/>
  <text x="848" y="160" font-family="Helvetica, Arial, sans-serif" font-size="20" fill="#334155">Menu bar: Transforming</text>
  <g transform="translate(970,176)">
    <path d="M-24 -20 h48 M-24 20 h48 M-20 -20 c0 15 12 20 20 24 c8-4 20-9 20-24 M-20 20 c0-15 12-20 20-24 c8 4 20 9 20 24" fill="url(#glassA)" stroke="#111827" stroke-width="4" stroke-linecap="round"/>
    <circle cx="0" cy="6" r="4" fill="#111827"/>
  </g>
</svg>
