<svg xmlns="http://www.w3.org/2000/svg" width="1200" height="520" viewBox="0 0 1200 520">
  <defs>
    <linearGradient id="bgB" x1="0" y1="0" x2="1" y2="1">
      <stop offset="0%" stop-color="#7C2D12"/>
      <stop offset="100%" stop-color="#EA580C"/>
    </linearGradient>
  </defs>

  <rect width="1200" height="520" fill="#fff9f6"/>
  <text x="40" y="52" font-family="Helvetica, Arial, sans-serif" font-size="28" fill="#7c2d12">Option B - Warm / Friendly</text>

  <rect x="40" y="90" rx="88" ry="88" width="340" height="340" fill="url(#bgB)"/>
  <circle cx="210" cy="260" r="110" fill="none" stroke="#fff4e6" stroke-width="24"/>
  <path d="M145 265 c20 -40 92 -42 125 -5 c-18 42 -90 48 -126 10" fill="none" stroke="#ffffff" stroke-width="20" stroke-linecap="round"/>

  <rect x="480" y="120" rx="18" ry="18" width="300" height="110" fill="#ffffff" stroke="#ead2c5"/>
  <text x="508" y="160" font-family="Helvetica, Arial, sans-serif" font-size="20" fill="#7c2d12">Menu bar: Idle</text>
  <g transform="translate(640,183)">
    <path d="M-30 -18 c12-12 30-12 42 0 c-6 8-15 12-21 13 c-7 1-16 5-21 14 c12 12 30 12 42 0" fill="none" stroke="#1f2937" stroke-width="6" stroke-linecap="round"/>
  </g>

  <rect x="820" y="120" rx="18" ry="18" width="320" height="110" fill="#ffffff" stroke="#ead2c5"/>
  <text x="848" y="160" font-family="Helvetica, Arial, sans-serif" font-size="20" fill="#7c2d12">Menu bar: Transforming</text>
  <g transform="translate(970,176)">
    <path d="M-24 -20 h48 M-24 20 h48 M-20 -20 c0 15 12 20 20 24 c8-4 20-9 20-24 M-20 20 c0-15 12-20 20-24 c8 4 20 9 20 24" fill="#fff" stroke="#111827" stroke-width="4" stroke-linecap="round"/>
    <path d="M-8 8 h16" stroke="#111827" stroke-width="4" stroke-linecap="round"/>
  </g>
</svg>
