<svg xmlns="http://www.w3.org/2000/svg" width="1200" height="560" viewBox="0 0 1200 560">
  <defs>
    <linearGradient id="gB" x1="0" y1="0" x2="1" y2="1">
      <stop offset="0%" stop-color="#5B2A0A"/>
      <stop offset="100%" stop-color="#C05621"/>
    </linearGradient>
  </defs>
  <rect width="1200" height="560" fill="#fff8f3"/>
  <text x="36" y="50" font-family="Helvetica, Arial, sans-serif" font-size="28" fill="#7c2d12">Hourglass Option B - Warm / Friendly</text>

  <rect x="40" y="90" width="340" height="340" rx="84" fill="url(#gB)"/>
  <g transform="translate(210,260)">
    <path d="M-88 -82 h176 M-88 82 h176" stroke="#FFF2E6" stroke-width="14" stroke-linecap="round"/>
    <path d="M-70 -82 c0 42 28 62 70 82 c42-20 70-40 70-82" fill="none" stroke="#fff" stroke-width="14" stroke-linecap="round"/>
    <path d="M-70 82 c0 -42 28 -62 70 -82 c42 20 70 40 70 82" fill="none" stroke="#fff" stroke-width="14" stroke-linecap="round"/>
    <path d="M-28 -24 h56" stroke="#FFE1C4" stroke-width="10" stroke-linecap="round"/>
    <path d="M-24 28 h48" stroke="#FFE1C4" stroke-width="10" stroke-linecap="round"/>
  </g>

  <text x="468" y="100" font-family="Helvetica, Arial, sans-serif" font-size="21" fill="#7c2d12">Menu bar samples</text>
  <rect x="470" y="120" width="300" height="100" rx="16" fill="#fff" stroke="#f0d8c8"/>
  <text x="496" y="155" font-family="Helvetica, Arial, sans-serif" font-size="18" fill="#7c2d12">Idle</text>
  <g transform="translate(620,173)">
    <path d="M-26 -15 h52 M-26 15 h52" stroke="#1f2937" stroke-width="4" stroke-linecap="round"/>
    <path d="M-20 -15 c0 9 9 12 20 15 c11-3 20-6 20-15 M-20 15 c0-9 9-12 20-15 c11 3 20 6 20 15" fill="none" stroke="#1f2937" stroke-width="4" stroke-linecap="round"/>
  </g>

  <rect x="810" y="120" width="330" height="100" rx="16" fill="#fff" stroke="#f0d8c8"/>
  <text x="836" y="155" font-family="Helvetica, Arial, sans-serif" font-size="18" fill="#7c2d12">Transforming</text>
  <g transform="translate(980,173)">
    <path d="M-26 -15 h52 M-26 15 h52" stroke="#1f2937" stroke-width="4" stroke-linecap="round"/>
    <path d="M-20 -15 c0 9 9 12 20 15 c11-3 20-6 20-15 M-20 15 c0-9 9-12 20-15 c11 3 20 6 20 15" fill="none" stroke="#1f2937" stroke-width="4" stroke-linecap="round"/>
    <circle cx="0" cy="9" r="3" fill="#1f2937"/>
    <circle cx="0" cy="3" r="2" fill="#1f2937"/>
  </g>
</svg>
