<svg xmlns="http://www.w3.org/2000/svg" width="1200" height="560" viewBox="0 0 1200 560">
  <rect width="1200" height="560" fill="#f8fafc"/>
  <text x="36" y="50" font-family="Helvetica, Arial, sans-serif" font-size="28" fill="#111827">Hourglass Option C - Minimal / Monochrome</text>

  <rect x="40" y="90" width="340" height="340" rx="84" fill="#111827"/>
  <g transform="translate(210,260)">
    <path d="M-86 -82 h172 M-86 82 h172" stroke="#f8fafc" stroke-width="13" stroke-linecap="round"/>
    <path d="M-70 -82 c0 44 30 60 70 82 c40-22 70-38 70-82" fill="none" stroke="#f8fafc" stroke-width="13" stroke-linecap="round"/>
    <path d="M-70 82 c0 -44 30 -60 70 -82 c40 22 70 38 70 82" fill="none" stroke="#f8fafc" stroke-width="13" stroke-linecap="round"/>
    <circle cx="0" cy="0" r="5" fill="#f8fafc"/>
    <path d="M-22 30 h44" stroke="#cbd5e1" stroke-width="8" stroke-linecap="round"/>
  </g>

  <text x="468" y="100" font-family="Helvetica, Arial, sans-serif" font-size="21" fill="#334155">Menu bar samples</text>
  <rect x="470" y="120" width="300" height="100" rx="16" fill="#fff" stroke="#cbd5e1"/>
  <text x="496" y="155" font-family="Helvetica, Arial, sans-serif" font-size="18" fill="#334155">Idle</text>
  <g transform="translate(620,173)">
    <path d="M-24 -14 h48 M-24 14 h48" stroke="#0f172a" stroke-width="4" stroke-linecap="round"/>
    <path d="M-18 -14 c0 9 8 11 18 14 c10-3 18-5 18-14 M-18 14 c0-9 8-11 18-14 c10 3 18 5 18 14" fill="none" stroke="#0f172a" stroke-width="4" stroke-linecap="round"/>
  </g>

  <rect x="810" y="120" width="330" height="100" rx="16" fill="#fff" stroke="#cbd5e1"/>
  <text x="836" y="155" font-family="Helvetica, Arial, sans-serif" font-size="18" fill="#334155">Transforming</text>
  <g transform="translate(980,173)">
    <path d="M-24 -14 h48 M-24 14 h48" stroke="#0f172a" stroke-width="4" stroke-linecap="round"/>
    <path d="M-18 -14 c0 9 8 11 18 14 c10-3 18-5 18-14 M-18 14 c0-9 8-11 18-14 c10 3 18 5 18 14" fill="none" stroke="#0f172a" stroke-width="4" stroke-linecap="round"/>
    <path d="M0 -5 v8" stroke="#0f172a" stroke-width="3" stroke-linecap="round"/>
    <circle cx="0" cy="8" r="2.8" fill="#0f172a"/>
  </g>
</svg>
