<svg xmlns="http://www.w3.org/2000/svg" width="980" height="280" viewBox="0 0 980 280">
  <defs>
    <linearGradient id="mbBlue" x1="0" y1="0" x2="0" y2="1">
      <stop offset="0%" stop-color="#1E40C8"/>
      <stop offset="100%" stop-color="#22D3EE"/>
    </linearGradient>
  </defs>
  <rect width="980" height="280" fill="#F8FAFC"/>

  <text x="40" y="45" font-family="Helvetica, Arial, sans-serif" font-size="26" fill="#0f172a">Menu bar icon samples (sketch-based)</text>

  <rect x="40" y="70" width="420" height="170" rx="18" fill="#fff" stroke="#d4dce8"/>
  <text x="68" y="112" font-family="Helvetica, Arial, sans-serif" font-size="20" fill="#334155">Idle</text>
  <g transform="translate(250,156) scale(0.9)" fill="none" stroke="url(#mbBlue)" stroke-width="12" stroke-linecap="round" stroke-linejoin="round">
    <ellipse cx="0" cy="-40" rx="62" ry="20"/>
    <path d="M-52 -20 C -24 -2, 24 -2, 48 -18"/>
    <path d="M0 2 C 24 20, 30 38, 24 54"/>
    <path d="M0 2 C -24 20, -46 48, -52 76 C -55 95, -28 108, 0 108 C 28 108, 55 95, 52 76 C 48 56, 36 40, 24 54"/>
    <path d="M-18 76 L0 94 L32 60"/>
  </g>

  <rect x="520" y="70" width="420" height="170" rx="18" fill="#fff" stroke="#d4dce8"/>
  <text x="548" y="112" font-family="Helvetica, Arial, sans-serif" font-size="20" fill="#334155">Transforming</text>
  <g transform="translate(730,156) scale(0.9)" fill="none" stroke="url(#mbBlue)" stroke-width="12" stroke-linecap="round" stroke-linejoin="round">
    <ellipse cx="0" cy="-40" rx="62" ry="20"/>
    <path d="M-52 -20 C -24 -2, 24 -2, 48 -18"/>
    <path d="M0 2 C 24 20, 30 38, 24 54"/>
    <path d="M0 2 C -24 20, -46 48, -52 76 C -55 95, -28 108, 0 108 C 28 108, 55 95, 52 76 C 48 56, 36 40, 24 54"/>
    <path d="M-18 76 L0 94 L32 60"/>
    <circle cx="2" cy="36" r="4" fill="#1D4ED8" stroke="none"/>
    <circle cx="2" cy="46" r="3" fill="#1D4ED8" stroke="none"/>
    <circle cx="2" cy="56" r="2.5" fill="#1D4ED8" stroke="none"/>
  </g>
</svg>
